<?xml version="1.0" encoding="UTF-8" standalone="no"?>
<!-- Created with Inkscape (http://www.inkscape.org/) -->

<svg
   width="64.523819mm"
   height="41.876968mm"
   viewBox="0 0 64.523819 41.876968"
   version="1.1"
   id="svg1"
   xmlns="http://www.w3.org/2000/svg"
   xmlns:svg="http://www.w3.org/2000/svg">
  <defs
     id="defs1" />
  <g
     id="layer1"
     style="opacity:1"
     transform="translate(-18.398814,-150.12702)">
    <path
       id="path6875"
       style="opacity:1;fill:#dd0000;fill-opacity:1;stroke:#dd0000;stroke-width:3;stroke-linecap:round;stroke-linejoin:round;stroke-dasharray:none;stroke-opacity:1"
       d="m 88.851562,137.06641 c -7.124422,1.93391 -13.741556,5.52605 -19.24414,10.44726 a 0.98675968,0.98675968 0 0 0 -0.03906,1.4336 l 26.691407,26.6914 a 0.98675968,0.98675968 0 0 0 1.662109,-0.90234 l -7.847656,-36.92188 a 0.98675968,0.98675968 0 0 0 -1.222657,-0.74804 z"
       transform="translate(-49.391408,14.592916)" />
    <path
       id="path6881"
       d="m 88.851562,137.06641 c -7.124422,1.93391 -13.741556,5.52605 -19.24414,10.44726 a 0.98675968,0.98675968 0 0 0 -0.03906,1.4336 l 26.691407,26.6914 a 0.98675968,0.98675968 0 0 0 1.662109,-0.90234 l -7.847656,-36.92188 a 0.98675968,0.98675968 0 0 0 -1.222657,-0.74804 z"
       style="opacity:1;fill:#005eff;fill-opacity:1;stroke:#005eff;stroke-width:3;stroke-linecap:round;stroke-linejoin:round;stroke-dasharray:none;stroke-opacity:1"
       transform="matrix(-1,4.73078e-5,4.73078e-5,1,150.70584,14.588183)" />
    <path
       id="path6887"
       style="font-style:italic;font-weight:bold;font-size:20.0299px;font-family:Roboto;-inkscape-font-specification:'Roboto Bold Italic';letter-spacing:2.18508px;baseline-shift:baseline;display:inline;overflow:visible;fill:#ffffff;stroke:#ffffff;stroke-width:1.5;stroke-linecap:round;stroke-linejoin:round;stroke-dasharray:none;enable-background:accumulate;stop-color:#000000;stop-opacity:1"
       d="m 38.145884,155.96 c -1.186622,-0.0233 -2.323289,0.19338 -3.338297,0.67955 -0.958307,0.45902 -1.808336,1.10289 -2.509408,1.90066 -0.679118,0.77279 -1.228158,1.65486 -1.640726,2.62516 a 1.5486349,1.5486349 0 0 0 -0.0041,0.01 c -0.394567,0.94547 -0.667017,1.9306 -0.815971,2.94349 a 1.5486349,1.5486349 0 0 0 -0.0021,0.0134 l -0.136943,0.98651 a 1.5486349,1.5486349 0 0 0 -0.0036,0.0232 c -0.120453,0.97114 -0.112788,1.93513 0.02532,2.87889 0.142566,0.97421 0.447659,1.89445 0.919841,2.72284 0.498591,0.87472 1.217957,1.60731 2.08411,2.127 a 1.5486349,1.5486349 0 0 0 0.0098,0.006 c 0.926198,0.54649 2.006855,0.79695 3.160014,0.82062 a 1.5486349,1.5486349 0 0 0 0.0021,0 c 1.231191,0.0234 2.423381,-0.19861 3.515547,-0.67593 a 1.5486349,1.5486349 0 0 0 0.0098,-0.004 c 1.097419,-0.48774 2.048319,-1.22491 2.781225,-2.16369 0.77037,-0.98437 1.232723,-2.18137 1.384929,-3.47111 a 1.5486349,1.5486349 0 0 0 -1.56064,-1.73067 l -2.797246,0.0387 0.08837,0.0879 a 1.5486349,1.5486349 0 0 0 -1.578198,1.12345 c -0.0881,0.39412 -0.21449,0.67592 -0.359668,0.88677 a 1.5486349,1.5486349 0 0 0 -0.0098,0.0134 c -0.120482,0.17926 -0.231367,0.27487 -0.419612,0.36329 a 1.5486349,1.5486349 0 0 0 -0.0078,0.004 c -0.155687,0.0742 -0.401964,0.1362 -0.798918,0.12299 -0.194922,-0.006 -0.277248,-0.0288 -0.302823,-0.0377 -0.07977,-0.0861 -0.13668,-0.18055 -0.183452,-0.38809 -0.07302,-0.32404 -0.106788,-0.67188 -0.09198,-1.05678 a 1.5486349,1.5486349 0 0 0 0,-0.002 c 0.01794,-0.47242 0.05084,-0.89136 0.0956,-1.25936 l 0.0021,-0.0103 c 2.78e-4,-0.002 -2.78e-4,-0.006 0,-0.008 l 0.130741,-0.97255 v -0.002 c 0.0664,-0.43658 0.167053,-0.88911 0.302824,-1.35547 v -0.002 c 0.125327,-0.41055 0.289973,-0.77318 0.494027,-1.10174 l 0.0021,-0.002 h 5.16e-4 v -5.2e-4 c 1.6e-4,-3.4e-4 7.24e-4,-0.002 10e-4,-0.002 1.44e-4,-2.8e-4 4.17e-4,-7.9e-4 5.17e-4,-0.001 0.167815,-0.26508 0.34263,-0.43247 0.564306,-0.56482 a 1.5486349,1.5486349 0 0 0 0.01602,-0.008 c 0.14095,-0.0862 0.341618,-0.15818 0.732255,-0.14676 0.378819,0.0129 0.520265,0.0986 0.513664,0.0941 a 1.5486349,1.5486349 0 0 0 0.01757,0.0114 c 0.04349,0.0296 0.04211,0.009 0.08217,0.13281 a 1.5486349,1.5486349 0 0 0 0.0098,0.0294 c 0.06579,0.19108 0.115923,0.47554 0.111104,0.86507 a 1.5486349,1.5486349 0 0 0 1.543058,1.56837 l 2.845822,0.0103 a 1.5486349,1.5486349 0 0 0 1.55236,-1.61954 c -0.05394,-1.17899 -0.319706,-2.28126 -0.829924,-3.25355 -0.508626,-0.98791 -1.284287,-1.81132 -2.240173,-2.36936 -0.982374,-0.58394 -2.1331,-0.85694 -3.365169,-0.88057 z m 23.740668,0.20464 -1.19786,5.2e-4 a 1.5486349,1.5486349 0 0 0 -1.52755,1.28312 l -2.4629,14.24048 a 1.5486349,1.5486349 0 0 0 1.52549,1.81229 h 1.2423 1.62315 1.53479 0.0103 l -0.004,-0.002 c 1.17357,0.007 2.3026,-0.19031 3.34191,-0.60926 a 1.5486349,1.5486349 0 0 0 0.0103,-0.004 c 1.01125,-0.41548 1.92419,-1.00463 2.70319,-1.75183 0.77498,-0.74366 1.40935,-1.62025 1.88877,-2.59932 v -0.002 c 0.48629,-0.98076 0.80732,-2.03849 0.95912,-3.14658 a 1.5486349,1.5486349 0 0 0 0.006,-0.0372 l 0.0765,-0.68729 c 0.12238,-1.04025 0.0822,-2.06252 -0.1328,-3.04323 v -0.002 c -0.21681,-0.99459 -0.61565,-1.92009 -1.19373,-2.72438 -0.5887,-0.81905 -1.36627,-1.484 -2.26911,-1.95337 -0.94813,-0.49957 -2.02788,-0.73978 -3.1719,-0.76326 a 1.5486349,1.5486349 0 0 0 -0.0258,0 l -1.24592,-0.004 a 1.5486349,1.5486349 0 0 0 -0.0114,-0.006 z m -14.043585,5.2e-4 a 1.5486349,1.5486349 0 0 0 -1.525488,1.28312 l -2.464966,14.24048 a 1.5486349,1.5486349 0 0 0 1.525488,1.81229 h 2.865458 a 1.5486349,1.5486349 0 0 0 1.525489,-1.28313 l 0.79685,-4.58421 h 4.200774 a 1.5486349,1.5486349 0 0 0 1.52549,-1.28106 l 0.40049,-2.28927 a 1.5486349,1.5486349 0 0 0 -1.52548,-1.81591 h -3.66593 l 0.11937,-0.68781 h 4.86689 a 1.5486349,1.5486349 0 0 0 1.52755,-1.28881 l 0.39068,-2.29702 a 1.5486349,1.5486349 0 0 0 -1.52549,-1.80867 h -6.16242 -0.792712 z m -12.273669,2.70474 c -6.95e-4,8e-4 -0.0023,0.003 -0.0031,0.004 5.9e-4,-6.9e-4 0.0013,-0.002 0.0021,-0.003 z m -0.0062,0.005 c 7.64e-4,-6e-5 0.0015,1.6e-4 0.0021,0 h 5.17e-4 v 5.2e-4 h -5.17e-4 c -0.0013,3.3e-4 -0.0032,3.6e-4 -0.0046,5.2e-4 l 5.16e-4,-5.2e-4 c 6.09e-4,-5e-5 0.0014,-4.6e-4 0.0021,-5.2e-4 z m 4.619873,0.0439 0.01499,0.01 c -3.24e-4,-1.2e-4 -6.8e-4,9e-5 -10e-4,0 l -0.001,-5.2e-4 -0.01292,-0.009 z m 1.280026,1.73478 c 4.09e-4,6.5e-4 0.0011,0.001 0.0015,0.002 h -5.17e-4 c -4.29e-4,-5.2e-4 -6.79e-4,-10e-4 -10e-4,-0.002 z m 26.948745,0.31626 c 3.9e-4,0.002 4.8e-4,0.004 5.1e-4,0.006 -2e-5,-0.002 -1.4e-4,-0.004 -5.1e-4,-0.006 z m -3.94757,0.59996 h 0.21291 c 0.39224,0.0125 0.53389,0.0966 0.56844,0.12299 0.13289,0.10148 0.20127,0.18956 0.2713,0.37724 a 1.5486349,1.5486349 0 0 0 0.006,0.0176 c 0.10253,0.26427 0.16554,0.56535 0.17932,0.92759 0.0165,0.42989 4.5e-4,0.8493 -0.0486,1.26349 l -0.0801,0.64285 c -0.10041,0.64879 -0.28757,1.23128 -0.56276,1.77147 a 1.5486349,1.5486349 0 0 0 -0.004,0.006 c -0.23815,0.4718 -0.53238,0.8063 -0.92811,1.08417 -0.16894,0.11586 -0.48466,0.12872 -0.72657,0.18966 z m -26.194262,9.39426 h 5.17e-4 v 5.1e-4 h -5.17e-4 c 7.7e-5,-1.2e-4 -6.9e-5,-4e-4 0,-5.1e-4 z" />
    <text
       xml:space="preserve"
       style="font-style:italic;font-variant:normal;font-weight:bold;font-stretch:normal;font-size:20.0299px;font-family:Roboto;-inkscape-font-specification:'Roboto Bold Italic';text-align:start;letter-spacing:2.18508px;writing-mode:lr-tb;direction:ltr;text-anchor:start;opacity:1;fill:#ffffff;fill-opacity:1;stroke:#ffffff;stroke-width:2.65;stroke-linecap:round;stroke-linejoin:round;stroke-dasharray:none;stroke-opacity:1"
       x="30.273088"
       y="171.95302"
       id="text6884"><tspan
         id="tspan6884"
         style="font-style:italic;font-variant:normal;font-weight:bold;font-stretch:normal;font-size:20.0299px;font-family:Roboto;-inkscape-font-specification:'Roboto Bold Italic';letter-spacing:2.18508px;fill:#000000;stroke:#000000;stroke-width:2.65;stroke-dasharray:none;stroke-opacity:1"
         x="30.273088"
         y="171.95302">CFD</tspan></text>
  </g>
</svg>
